<svg xmlns="http://www.w3.org/2000/svg" fill="currentColor" viewBox="0 0 250.19 43.15" width="81" height="14"><path d="M93.89.33h6l15.81 42.82h-5.87l-4.55-13.06H88.26l-4.61 13.06h-5.51Zm-4.07 25.39h14l-4.9-14.37C98.09 9 97 5.3 97 5.3h-.12s-1.14 3.59-2 6.05ZM111 .33h5.81l10.54 31.86c.66 2 1.68 5.75 1.68 5.75h.12s1-3.83 1.67-5.75L141.28.33h5.63l-15 42.82H126ZM31.62 20.51v-.18c4.25-1.31 6.89-4.25 6.89-9A10.18 10.18 0 0 0 35.75 4C33.36 1.53 29.94.33 25.45.33H7.3v27.4a5 5 0 0 1-5 5A2.34 2.34 0 0 0 0 35v8.11h26.41c4.61 0 8.32-1.5 10.72-4.07a11.74 11.74 0 0 0 3.11-8.21c0-5.71-3.77-9.18-8.62-10.32ZM12.69 5h12.82c4.79 0 7.61 2.52 7.61 6.65 0 4.43-3.12 7-8.33 7h-12.1Zm20.19 31.14c-1.44 1.38-3.66 2.16-6.71 2.16H5.39v-1.57a5 5 0 0 1 5-5 2.33 2.33 0 0 0 2.33-2.34v-6.18h13.09c5.21 0 9 2.63 9 8a7 7 0 0 1-1.93 4.93ZM73.64 38.18H51.19V26.24a5 5 0 0 1 5-5 2.34 2.34 0 0 0 2.34-2.34V.33H53.1v16.91a5 5 0 0 1-5 5 2.33 2.33 0 0 0-2.33 2.34v18.6h27.87ZM182.07 38.18h-32.56v-1.45a5 5 0 0 1 5-5 2.34 2.34 0 0 0 2.34-2.34v-6.24h22.26V18.6h-22.29V5.06h24.54V.33h-29.93v27.4a5 5 0 0 1-5 5 2.34 2.34 0 0 0-2.31 2.27v8.11h37.95ZM185.88.33v4.73h14.23v12.18a5 5 0 0 1-5 5 2.33 2.33 0 0 0-2.33 2.34v18.6h5.39V26.24a5 5 0 0 1 5-5 2.34 2.34 0 0 0 2.34-2.34V5.06h14.28V.33ZM221.68 14.49a14.26 14.26 0 1 1 28.51 0 14.26 14.26 0 1 1-28.51 0Zm26 0c0-7.12-5-12.39-11.8-12.39s-11.79 5.27-11.79 12.39 5 12.4 11.79 12.4 11.85-5.21 11.85-12.4Zm-17.32-7.84h7.07c2.82 0 4.85 1.79 4.85 4.31a3.52 3.52 0 0 1-2.87 3.65v.06c1.49.42 2.21 1.26 2.39 3.12.24 2.15.12 3.77.66 4V22h-2.93c-.42-.18-.6-1.92-.66-3.53s-1-2.64-2.94-2.64h-2.51V22h-3.06Zm3.06 6.83h3.35c1.68 0 2.52-.9 2.52-2.16s-.84-2.16-2.52-2.16h-3.35Z"/></svg>
