<?xml version="1.0" standalone="no"?>
<!DOCTYPE svg PUBLIC "-//W3C//DTD SVG 20010904//EN"
 "http://www.w3.org/TR/2001/REC-SVG-20010904/DTD/svg10.dtd">
<svg version="1.0" xmlns="http://www.w3.org/2000/svg"
 width="800.000000pt" height="800.000000pt" viewBox="0 0 800.000000 800.000000"
 preserveAspectRatio="xMidYMid meet">
<metadata>
Created by potrace 1.14, written by Peter Selinger 2001-2017
</metadata>
<g transform="translate(0.000000,800.000000) scale(0.100000,-0.100000)"
fill="#000000" stroke="none">
<path d="M3705 7899 c-690 -53 -1373 -297 -1940 -694 -364 -255 -715 -606
-970 -970 -938 -1341 -938 -3139 0 -4480 255 -364 606 -715 970 -970 1150
-805 2657 -929 3923 -324 187 89 294 150 482 275 223 147 400 293 600 494 327
326 575 675 769 1082 605 1266 481 2773 -324 3923 -255 364 -606 715 -970 970
-735 514 -1643 762 -2540 694z m1080 -1964 c183 -29 379 -102 503 -187 68 -46
198 -174 242 -238 125 -183 184 -424 160 -650 -13 -127 -33 -199 -79 -295 -90
-183 -239 -311 -466 -401 -44 -18 -79 -35 -78 -39 1 -4 46 -22 100 -40 189
-62 319 -141 443 -271 119 -124 190 -260 224 -426 21 -102 21 -341 1 -440 -93
-448 -401 -743 -898 -861 -92 -21 -96 -21 -1445 -24 l-1353 -3 3 409 3 409 31
39 c48 59 100 83 202 93 98 9 153 28 230 78 93 61 157 152 187 269 13 49 15
233 15 1325 l0 1268 943 0 c779 0 958 -3 1032 -15z"/>
<path d="M3310 4910 l0 -621 663 4 c652 3 663 4 741 26 318 90 478 291 479
601 1 327 -181 536 -519 595 -71 12 -202 15 -725 15 l-639 0 0 -620z"/>
<path d="M3308 3558 l-3 -313 -28 -47 c-40 -68 -94 -97 -204 -108 -142 -15
-220 -50 -309 -139 -91 -91 -134 -210 -134 -373 l0 -78 1034 0 c1130 0 1122 0
1284 59 145 53 243 131 315 253 64 107 82 182 82 338 0 159 -11 212 -70 335
-69 144 -180 244 -348 313 -158 66 -151 65 -919 69 l-697 4 -3 -313z"/>
</g>
</svg>
